<?xml version="1.0" encoding="UTF-8" standalone="no"?>
<svg width="21px" height="31px" viewBox="0 0 21 31" version="1.1" xmlns="http://www.w3.org/2000/svg" xmlns:xlink="http://www.w3.org/1999/xlink">
    <!-- Generator: Sketch 39.1 (31720) - http://www.bohemiancoding.com/sketch -->
    <title>Page 1</title>
    <desc>Created with Sketch.</desc>
    <defs></defs>
    <g id="Page-1" stroke="none" stroke-width="1" fill="none" fill-rule="evenodd">
        <g id="find" transform="translate(-1049.000000, -120.000000)" fill="#FFFFFF">
            <path d="M1059.52933,127.733138 C1059.88123,127.733138 1060.20381,127.801563 1060.49707,127.938415 C1060.79032,128.075269 1061.05425,128.260997 1061.28886,128.495601 C1061.52346,128.730205 1061.69941,128.994133 1061.81672,129.287392 C1061.93402,129.580647 1061.99267,129.903226 1061.99267,130.255132 C1061.99267,130.607038 1061.93402,130.939391 1061.81672,131.252199 C1061.69941,131.565007 1061.52346,131.819157 1061.28886,132.014663 C1061.05425,132.249267 1060.79032,132.434994 1060.49707,132.571849 C1060.20381,132.708701 1059.88123,132.777126 1059.52933,132.777126 C1059.17742,132.777126 1058.84507,132.708701 1058.53226,132.571849 C1058.21945,132.434994 1057.94575,132.249267 1057.71114,132.014663 C1057.51564,131.819157 1057.34946,131.565007 1057.21261,131.252199 C1057.07576,130.939391 1057.00733,130.607038 1057.00733,130.255132 C1057.00733,129.903226 1057.07576,129.580647 1057.21261,129.287392 C1057.34946,128.994133 1057.51564,128.730205 1057.71114,128.495601 C1057.94575,128.260997 1058.21945,128.075269 1058.53226,127.938415 C1058.84507,127.801563 1059.17742,127.733138 1059.52933,127.733138 L1059.52933,127.733138 Z M1059.52933,131.780059 C1059.72483,131.780059 1059.91056,131.740957 1060.08651,131.662757 C1060.26247,131.584556 1060.42864,131.467254 1060.58504,131.31085 C1060.70235,131.193548 1060.8001,131.046923 1060.8783,130.870966 C1060.9565,130.695013 1060.9956,130.489736 1060.9956,130.255132 C1060.9956,130.059626 1060.9565,129.864128 1060.8783,129.668622 C1060.8001,129.473116 1060.70235,129.316716 1060.58504,129.199413 C1060.42864,129.04301 1060.26247,128.935486 1060.08651,128.876831 C1059.91056,128.81818 1059.72483,128.788856 1059.52933,128.788856 C1059.29472,128.788856 1059.08944,128.81818 1058.91349,128.876831 C1058.73753,128.935486 1058.57136,129.04301 1058.41496,129.199413 C1058.29765,129.316716 1058.1999,129.473116 1058.1217,129.668622 C1058.0435,129.864128 1058.0044,130.059626 1058.0044,130.255132 C1058.0044,130.489736 1058.0435,130.695013 1058.1217,130.870966 C1058.1999,131.046923 1058.29765,131.193548 1058.41496,131.31085 C1058.57136,131.467254 1058.73753,131.584556 1058.91349,131.662757 C1059.08944,131.740957 1059.29472,131.780059 1059.52933,131.780059 L1059.52933,131.780059 Z M1069.5,144.800587 L1049.5,144.800587 L1054.48534,138.583578 L1054.48534,135.826979 L1054.48534,133.187683 L1054.48534,130.929621 L1054.48534,129.375367 C1054.48534,128.67155 1054.60264,127.909095 1054.83724,127.087977 C1055.07185,126.266858 1055.4042,125.484853 1055.83431,124.741935 C1056.26442,123.959919 1056.79228,123.217013 1057.41789,122.513196 C1058.0435,121.80938 1058.74731,121.222878 1059.52933,120.753666 C1060.31134,121.222878 1061.01515,121.80938 1061.64076,122.513196 C1062.26637,123.217013 1062.77468,123.959919 1063.16569,124.741935 C1063.5958,125.484853 1063.92815,126.257084 1064.16276,127.058653 C1064.39736,127.860218 1064.51466,128.612899 1064.51466,129.316716 L1064.51466,130.900293 L1064.51466,133.129032 L1064.51466,135.768328 L1064.51466,138.524927 L1069.5,144.800587 Z M1054.48534,140.108504 L1051.61144,143.803519 L1054.48534,143.803519 L1054.48534,140.108504 Z M1063.5176,129.375367 C1063.5176,128.788853 1063.42962,128.163248 1063.25366,127.498534 C1063.07771,126.83382 1062.81378,126.169113 1062.46188,125.504399 C1062.14907,124.839685 1061.73852,124.204305 1061.23021,123.598239 C1060.7219,122.992175 1060.15494,122.434996 1059.52933,121.926686 C1058.86461,122.434996 1058.28788,122.992175 1057.79912,123.598239 C1057.31036,124.204305 1056.89003,124.839685 1056.53812,125.504399 C1056.18622,126.169113 1055.92229,126.83382 1055.74633,127.498534 C1055.57038,128.163248 1055.4824,128.788853 1055.4824,129.375367 L1055.4824,143.803519 L1063.5176,143.803519 L1063.5176,129.375367 Z M1064.51466,140.108504 L1064.51466,141.222874 L1064.51466,142.219941 L1064.51466,143.041056 L1064.51466,143.803519 L1067.38856,143.803519 L1064.51466,140.108504 L1064.51466,140.108504 Z M1059.00147,145.797654 L1059.99853,145.797654 L1059.99853,150.782991 L1059.00147,150.782991 L1059.00147,145.797654 Z M1061.52346,145.797654 L1062.52053,145.797654 L1062.52053,148.788856 L1061.52346,148.788856 L1061.52346,145.797654 Z M1056.47947,145.797654 L1057.53519,145.797654 L1057.53519,148.788856 L1056.47947,148.788856 L1056.47947,145.797654 Z" id="Page-1"></path>
        </g>
    </g>
</svg>