<?xml version="1.0" encoding="UTF-8" standalone="no"?>
<svg width="25px" height="28px" viewBox="0 0 25 28" version="1.1" xmlns="http://www.w3.org/2000/svg" xmlns:xlink="http://www.w3.org/1999/xlink">
    <!-- Generator: Sketch 39.1 (31720) - http://www.bohemiancoding.com/sketch -->
    <title>Page 1</title>
    <desc>Created with Sketch.</desc>
    <defs></defs>
    <g id="Page-1" stroke="none" stroke-width="1" fill="none" fill-rule="evenodd">
        <g id="find" transform="translate(-1267.000000, -120.000000)" fill="#000000">
            <path d="M1291.35938,132.882392 C1291.35938,131.23367 1291.04088,129.688019 1290.40387,128.245388 C1289.76687,126.80276 1288.90505,125.538135 1287.81839,124.451478 C1286.73173,123.364821 1285.45774,122.503003 1283.99638,121.865998 C1282.53501,121.228994 1280.97999,120.910495 1279.33127,120.910495 C1277.68255,120.910495 1276.12753,121.228994 1274.66617,121.865998 C1273.2048,122.503003 1271.94954,123.364821 1270.90036,124.451478 C1269.8137,125.538135 1268.95188,126.80276 1268.31488,128.245388 C1267.67787,129.688019 1267.35938,131.23367 1267.35938,132.882392 L1267.35938,137.772321 L1267.41558,137.772321 L1267.41558,137.997146 L1267.41558,138.165764 C1267.41558,138.952653 1267.56546,139.702059 1267.86523,140.414008 C1268.165,141.125956 1268.57717,141.744216 1269.10176,142.268809 C1269.58889,142.793401 1270.17904,143.205574 1270.87226,143.505343 C1271.56547,143.805111 1272.30551,143.954991 1273.0924,143.954991 L1273.0924,132.432743 C1272.5678,132.432743 1272.07132,132.488949 1271.60294,132.601361 C1271.13455,132.713773 1270.71301,132.882392 1270.3383,133.107216 C1269.92612,133.33204 1269.55141,133.6037 1269.21418,133.922206 C1268.87694,134.240709 1268.57717,134.606043 1268.31488,135.018223 L1268.31488,132.882392 C1268.31488,131.383554 1268.60527,129.959682 1269.18607,128.610729 C1269.76687,127.261776 1270.56312,126.100196 1271.57483,125.125951 C1272.54908,124.114238 1273.71066,123.317993 1275.05961,122.737191 C1276.40856,122.156392 1277.83243,121.865998 1279.33127,121.865998 C1280.86758,121.865998 1282.30082,122.156392 1283.63104,122.737191 C1284.96126,123.317993 1286.13221,124.114238 1287.14392,125.125951 C1288.15563,126.100196 1288.95188,127.261776 1289.53268,128.610729 C1290.11348,129.959682 1290.40387,131.383554 1290.40387,132.882392 L1290.40387,135.018223 C1290.14158,134.643515 1289.84181,134.296915 1289.50457,133.978409 C1289.16734,133.659906 1288.79263,133.388246 1288.38045,133.163422 C1287.96827,132.938598 1287.52799,132.760612 1287.05961,132.629462 C1286.59122,132.498316 1286.11347,132.432743 1285.62635,132.432743 L1285.57015,132.432743 L1285.57015,143.954991 L1285.62635,143.954991 C1285.88865,143.954991 1286.12284,143.936257 1286.32893,143.898785 C1286.53502,143.861313 1286.76921,143.805107 1287.03151,143.730167 C1286.6568,144.104875 1286.27273,144.432742 1285.87928,144.713773 C1285.48584,144.994805 1285.0643,145.266465 1284.61464,145.528762 C1284.20246,145.753587 1283.75282,145.950307 1283.2657,146.118926 C1282.77858,146.287545 1282.29146,146.446794 1281.80434,146.596677 L1281.80434,144.910495 L1276.97062,144.910495 L1276.97062,147.777005 L1281.74813,147.777005 L1281.74813,147.608387 C1282.49755,147.421032 1283.22822,147.186843 1283.94017,146.905811 C1284.65212,146.624779 1285.32659,146.259443 1285.96359,145.809792 C1286.6006,145.397612 1287.19075,144.929233 1287.73408,144.40464 C1288.27741,143.880047 1288.75516,143.299256 1289.16734,142.662251 C1289.50457,142.399955 1289.80434,142.109561 1290.06663,141.791059 C1290.32893,141.472553 1290.55375,141.107218 1290.74111,140.695038 C1290.92846,140.32033 1291.07834,139.917523 1291.19076,139.486605 C1291.30317,139.055691 1291.35938,138.615416 1291.35938,138.165764 L1291.35938,137.969045 L1291.35938,137.772321 L1291.35938,132.882392 Z M1272.13689,133.500659 L1272.13689,142.887076 C1271.6123,142.774663 1271.11582,142.577944 1270.64743,142.29691 C1270.17904,142.015879 1269.77624,141.669279 1269.439,141.257099 C1269.10176,140.807447 1268.8301,140.3297 1268.62401,139.823842 C1268.41792,139.317987 1268.31488,138.765297 1268.31488,138.165764 C1268.31488,137.6037 1268.41792,137.06038 1268.62401,136.535787 C1268.8301,136.011195 1269.10176,135.542816 1269.439,135.130635 C1269.77624,134.718455 1270.17904,134.371855 1270.64743,134.090821 C1271.11582,133.80979 1271.6123,133.613071 1272.13689,133.500659 L1272.13689,133.500659 Z M1280.79263,146.821502 L1277.92612,146.821502 L1277.92612,145.865998 L1280.79263,145.865998 L1280.79263,146.821502 Z M1286.52565,142.887076 L1286.52565,133.500659 C1287.08772,133.613071 1287.60293,133.80979 1288.07132,134.090821 C1288.5397,134.371855 1288.94251,134.718455 1289.27975,135.130635 C1289.61699,135.542816 1289.88865,136.011195 1290.09474,136.535787 C1290.30083,137.06038 1290.40387,137.6037 1290.40387,138.165764 C1290.40387,138.765297 1290.30083,139.317987 1290.09474,139.823842 C1289.88865,140.3297 1289.61699,140.807447 1289.27975,141.257099 C1288.94251,141.669279 1288.5397,142.015879 1288.07132,142.29691 C1287.60293,142.577944 1287.08772,142.774663 1286.52565,142.887076 L1286.52565,142.887076 Z" id="Page-1"></path>
        </g>
    </g>
</svg>