<?xml version="1.0" encoding="UTF-8" standalone="no"?>
<svg width="27px" height="23px" viewBox="0 0 27 23" version="1.1" xmlns="http://www.w3.org/2000/svg" xmlns:xlink="http://www.w3.org/1999/xlink">
    <!-- Generator: Sketch 39.1 (31720) - http://www.bohemiancoding.com/sketch -->
    <title>Page 1</title>
    <desc>Created with Sketch.</desc>
    <defs></defs>
    <g id="Page-1" stroke="none" stroke-width="1" fill="none" fill-rule="evenodd">
        <g id="find" transform="translate(-646.000000, -21.000000)" fill="#4A4A4A">
            <g id="Group-14" transform="translate(646.000000, 21.000000)">
                <path d="M24.3439024,0.0348821365 L2.65609756,0.0348821365 C2.36016125,0.0348821365 2.08536707,0.0877283414 1.83170732,0.193416693 C1.57804756,0.299109102 1.34552954,0.457643658 1.13414634,0.669028478 C0.965039703,0.880413298 0.81707382,1.11293092 0.690243902,1.36658945 C0.563413985,1.62024799 0.5,1.89504339 0.5,2.1909797 L0.5,16.2690285 C0.5,16.5649648 0.563413985,16.8503286 0.690243902,17.1251281 C0.81707382,17.3999235 0.965039703,17.6218727 1.13414634,17.7909797 C1.34552954,18.0023645 1.57804756,18.1608991 1.83170732,18.2665915 C2.08536707,18.3722798 2.36016125,18.425126 2.65609756,18.425126 L17.8756098,18.425126 L22.1243902,22.7373212 L22.1243902,18.425126 L24.3439024,18.425126 C24.6398388,18.425126 24.9146341,18.3722798 25.1682927,18.2665915 C25.4219512,18.1608991 25.6544688,18.0023645 25.8658537,17.7909797 C26.0349607,17.6218727 26.1829268,17.3999235 26.3097561,17.1251281 C26.4365854,16.8503286 26.5,16.5649648 26.5,16.2690285 L26.5,2.1909797 C26.5,1.89504339 26.4365854,1.62024799 26.3097561,1.36658945 C26.1829268,1.11293092 26.0349607,0.880413298 25.8658537,0.669028478 C25.6544688,0.457643658 25.4219512,0.299109102 25.1682927,0.193416693 C24.9146341,0.0877283414 24.6398388,0.0348821365 24.3439024,0.0348821365 L24.3439024,0.0348821365 Z M25.4219512,16.2690285 C25.4219512,16.5649648 25.3162629,16.8186193 25.104878,17.0300041 C24.8934932,17.2413889 24.6398388,17.3470773 24.3439024,17.3470773 L21.0463415,17.3470773 L21.0463415,20.1373212 L18.3195122,17.3470773 L2.65609756,17.3470773 C2.36016125,17.3470773 2.10650515,17.2413889 1.89512195,17.0300041 C1.68373876,16.8186193 1.57804878,16.5649648 1.57804878,16.2690285 L1.57804878,2.1909797 C1.57804878,1.89504339 1.68373876,1.64138891 1.89512195,1.43000409 C2.10650515,1.21861927 2.36016125,1.11293092 2.65609756,1.11293092 L24.3439024,1.11293092 C24.6398388,1.11293092 24.8934932,1.21861927 25.104878,1.43000409 C25.3162629,1.64138891 25.4219512,1.89504339 25.4219512,2.1909797 L25.4219512,16.2690285 Z M13.5,8.15195531 C13.2040637,8.15195531 12.9504092,8.25764366 12.7390244,8.46902848 C12.5276396,8.6804133 12.4219512,8.93406778 12.4219512,9.23000409 C12.4219512,9.5259404 12.5276396,9.77959488 12.7390244,9.9909797 C12.9504092,10.2023645 13.2040637,10.3080529 13.5,10.3080529 C13.7959363,10.3080529 14.0495908,10.2023645 14.2609756,9.9909797 C14.4723604,9.77959488 14.5780488,9.5259404 14.5780488,9.23000409 C14.5780488,8.93406778 14.4723604,8.6804133 14.2609756,8.46902848 C14.0495908,8.25764366 13.7959363,8.15195531 13.5,8.15195531 L13.5,8.15195531 Z M17.8121951,8.15195531 C17.5162588,8.15195531 17.2626043,8.25764366 17.0512195,8.46902848 C16.8398347,8.6804133 16.7341463,8.93406778 16.7341463,9.23000409 C16.7341463,9.5259404 16.8398347,9.77959488 17.0512195,9.9909797 C17.2626043,10.2023645 17.5162588,10.3080529 17.8121951,10.3080529 C18.1081314,10.3080529 18.3617859,10.2023645 18.5731707,9.9909797 C18.7845556,9.77959488 18.8902439,9.5259404 18.8902439,9.23000409 C18.8902439,8.93406778 18.7845556,8.6804133 18.5731707,8.46902848 C18.3617859,8.25764366 18.1081314,8.15195531 17.8121951,8.15195531 L17.8121951,8.15195531 Z M9.25121951,8.15195531 C8.9552832,8.15195531 8.70162872,8.25764366 8.4902439,8.46902848 C8.27885908,8.6804133 8.17317073,8.93406778 8.17317073,9.23000409 C8.17317073,9.5259404 8.27885908,9.77959488 8.4902439,9.9909797 C8.70162872,10.2023645 8.9552832,10.3080529 9.25121951,10.3080529 C9.54715582,10.3080529 9.8008103,10.2023645 10.0121951,9.9909797 C10.2235799,9.77959488 10.3292683,9.5259404 10.3292683,9.23000409 C10.3292683,8.93406778 10.2235799,8.6804133 10.0121951,8.46902848 C9.8008103,8.25764366 9.54715582,8.15195531 9.25121951,8.15195531 L9.25121951,8.15195531 Z" id="Page-1"></path>
            </g>
        </g>
    </g>
</svg>