<?xml version="1.0" encoding="UTF-8" standalone="no"?>
<svg width="26px" height="26px" viewBox="0 0 26 26" version="1.1" xmlns="http://www.w3.org/2000/svg" xmlns:xlink="http://www.w3.org/1999/xlink">
    <!-- Generator: Sketch 39.1 (31720) - http://www.bohemiancoding.com/sketch -->
    <title>Page 1</title>
    <desc>Created with Sketch.</desc>
    <defs></defs>
    <g id="Page-1" stroke="none" stroke-width="1" fill="none" fill-rule="evenodd">
        <g id="find" transform="translate(-852.000000, -18.000000)" fill="#4A4A4A">
            <g id="Group-13" transform="translate(852.000000, 18.000000)">
                <path d="M12.9677419,8.52651283e-14 C11.2042942,8.52651283e-14 9.52689135,0.334157692 7.93548387,1.00248963 C6.34407639,1.67081743 4.96774606,2.60861803 3.80645161,3.8159204 C2.64515551,4.98010364 1.72043355,6.34907893 1.03225806,7.9228835 C0.344082581,9.49669222 0,11.1890464 0,13 C0,14.8109536 0.344082581,16.5033078 1.03225806,18.0771165 C1.72043355,19.6509211 2.64515551,21.0198964 3.80645161,22.1840796 C4.96774606,23.3913824 6.34407639,24.3291842 7.93548387,24.9975124 C9.52689135,25.6658408 11.2042942,26 12.9677419,26 C14.7742018,26 16.4623566,25.6658408 18.0322601,24.9975124 C19.6021595,24.3291842 20.9892418,23.3913824 22.1935484,22.1840796 C23.3548428,21.0198964 24.2795685,19.6509211 24.9677419,18.0771165 C25.6559154,16.5033078 26,14.8109536 26,13 C26,11.1890464 25.6559154,9.49669222 24.9677419,7.9228835 C24.2795685,6.34907893 23.3548428,4.98010364 22.1935484,3.8159204 C20.9892418,2.60861803 19.6021595,1.67081743 18.0322601,1.00248963 C16.4623566,0.334157692 14.7742018,8.52651283e-14 12.9677419,8.52651283e-14 L12.9677419,8.52651283e-14 Z M5.87096774,22.5721393 C6.04301213,22.4859035 6.23655639,22.4104482 6.4516129,22.3457711 C6.66666942,22.2810941 6.88171768,22.2056388 7.09677419,22.119403 C7.31183071,22.0331672 7.51612697,21.9577119 7.70967948,21.8930348 C7.90322787,21.8283561 8.10752413,21.7744624 8.32258065,21.7313433 C8.96774606,21.5157518 9.49462297,21.3325048 9.90322787,21.1815941 C10.3118286,21.0306792 10.6236532,20.8905473 10.8387097,20.761194 C11.0537662,20.6318408 11.1935463,20.4917088 11.2580625,20.340794 C11.3225827,20.1898832 11.3548387,20.0066363 11.3548387,19.7910448 L11.3548387,17.6567164 L10.4516129,17.5273632 C10.4086008,17.5273632 10.0967763,17.4842441 9.5161311,17.39801 C8.93548181,17.3117758 8.3871009,17.2686567 7.87096774,17.2686567 C7.5698911,17.2686567 7.34408671,17.257878 7.19355045,17.2363163 C7.04301006,17.2147588 6.88172181,17.160861 6.70967742,17.0746269 C6.92473394,16.643448 7.11827819,16.1799371 7.29032258,15.6840775 C7.46236697,15.1882221 7.63440723,14.6600345 7.80645161,14.0995025 C7.978496,13.5389704 8.12903226,12.9892213 8.25806452,12.4502467 C8.38709677,11.9112763 8.4731169,11.3830887 8.51612903,10.8656716 L8.58064516,10.8656716 L8.64516129,9.44278607 C8.68817342,8.88225401 8.82795768,8.34328772 9.06451406,7.82587065 C9.30107458,7.30845357 9.61290323,6.87728302 10,6.53233831 C10.3870968,6.14427861 10.8387055,5.8532359 11.3548387,5.65920605 C11.8709719,5.46517206 12.4086008,5.3681592 12.9677419,5.3681592 C13.5698952,5.3681592 14.1182761,5.46517206 14.6129012,5.65920605 C15.1075303,5.8532359 15.5483871,6.14427861 15.9354839,6.53233831 C16.3225806,6.87728302 16.6451613,7.30845357 16.9032258,7.82587065 C17.1612903,8.34328772 17.2903226,8.88225401 17.2903226,9.44278607 L17.4193548,10.8656716 C17.505375,11.3830887 17.6129032,11.9112763 17.7419355,12.4502467 C17.8709677,12.9892213 18.021504,13.5389704 18.1935484,14.0995025 C18.3225806,14.6600345 18.4838689,15.1882221 18.6774214,15.6840775 C18.8709698,16.1799371 19.0537621,16.643448 19.2258065,17.0746269 C19.0967742,17.160861 18.9462379,17.2147588 18.7741935,17.2363163 C18.6021492,17.257878 18.3870968,17.2686567 18.1290323,17.2686567 C17.6128991,17.2686567 17.0537662,17.3225546 16.4516129,17.4303503 C15.8494596,17.5381419 15.5268831,17.6135973 15.483871,17.6567164 L14.6451613,17.8507463 L14.6451613,19.7910448 C14.6451613,20.0066363 14.6774173,20.1898832 14.7419334,20.340794 C14.8064537,20.4917088 14.9462338,20.6318408 15.1612903,20.761194 C15.3763468,20.8905473 15.6989234,21.0306792 16.1290323,21.1815941 C16.5591412,21.3325048 17.1182782,21.5373134 17.8064516,21.7960199 C17.978496,21.839139 18.1612883,21.903814 18.3548366,21.9900498 C18.5483892,22.0762855 18.7311814,22.1409617 18.9032258,22.1840796 C19.0752702,22.2703154 19.2580625,22.3457707 19.451615,22.4104478 C19.6451634,22.4751248 19.8494596,22.5505802 20.0645161,22.6368159 C19.548383,22.9817594 19.0215061,23.29436 18.4838689,23.5746269 C17.9462359,23.8548937 17.3763468,24.1028181 16.7741935,24.318408 C16.1720403,24.5339978 15.5591432,24.6956877 14.9354859,24.8034826 C14.3118245,24.9112775 13.6559154,24.9651741 12.9677419,24.9651741 C12.3225765,24.9651741 11.6774235,24.9112775 11.0322581,24.8034826 C10.3870926,24.6956877 9.76344361,24.5339978 9.16129032,24.318408 C8.55913703,24.1028181 7.978496,23.8548937 7.41935484,23.5746269 C6.86021368,23.29436 6.34408877,22.9602011 5.87096774,22.5721393 L5.87096774,22.5721393 Z M21.0322581,21.7960199 C19.9139716,21.3648411 18.7419417,20.9444451 17.5161311,20.5348279 C16.2903164,20.1252066 15.6774194,19.8772789 15.6774194,19.7910448 L15.6774194,19.1442786 L15.6774194,18.6915423 C15.6774194,18.6915423 15.9677399,18.6376444 16.548385,18.5298487 C17.1290343,18.4220571 17.6559112,18.3681592 18.1290323,18.3681592 C18.3870968,18.3681592 18.6129012,18.3573805 18.8064537,18.335823 C19.0000021,18.3142613 19.2042983,18.2603635 19.4193548,18.1741294 C19.5913992,18.1310102 19.7741915,18.0339974 19.967744,17.8830825 C20.1612924,17.7321718 20.3655886,17.5273632 20.5806452,17.2686567 C20.3225806,16.8374779 20.0645161,16.27695 19.8064516,15.5870647 C19.5483871,14.8971794 19.3118307,14.1857407 19.0967742,13.4527363 C18.8817177,12.6766128 18.7096774,11.9328379 18.5806452,11.2213951 C18.4516129,10.5099482 18.3870968,9.89552653 18.3870968,9.37810945 C18.3440846,8.64510503 18.1720444,7.97678551 17.8709677,7.37313433 C17.5698911,6.76948314 17.1827985,6.23051686 16.7096774,5.75621891 C16.2365564,5.28192096 15.6774235,4.91542289 15.0322581,4.65671642 C14.3870926,4.39800995 13.6989275,4.26865672 12.9677419,4.26865672 C12.2795685,4.26865672 11.6129074,4.39800995 10.9677419,4.65671642 C10.3225765,4.91542289 9.76344361,5.28192096 9.29032258,5.75621891 C8.77418942,6.23051686 8.37634477,6.76948314 8.09677626,7.37313433 C7.81720361,7.97678551 7.65591535,8.64510503 7.61290323,9.37810945 L7.5483871,9.37810945 C7.5483871,9.89552653 7.48387097,10.5099482 7.35483871,11.2213951 C7.22580645,11.9328379 7.07527019,12.6766128 6.90322581,13.4527363 C6.68816929,14.1857407 6.4516129,14.8971794 6.19354839,15.5870647 C5.93548387,16.27695 5.67741935,16.8374779 5.41935484,17.2686567 C5.63441135,17.5273632 5.82795561,17.7321718 6,17.8830825 C6.17204439,18.0339974 6.36558865,18.1310102 6.58064516,18.1741294 C6.75268955,18.2603635 6.94623381,18.3142613 7.16129032,18.335823 C7.37634684,18.3573805 7.61290323,18.3681592 7.87096774,18.3681592 C8.34408877,18.3681592 8.86021368,18.4112783 9.41935484,18.4975124 C9.978496,18.5837465 10.2580645,18.6268657 10.2580645,18.6268657 L10.2580645,19.1119424 L10.2580645,19.7910448 C10.2580645,19.8772789 9.64516748,20.1252066 8.41935277,20.5348279 C7.19354219,20.9444451 6.02151226,21.3432836 4.90322581,21.7313433 C4.30107252,21.2139262 3.7634432,20.6210662 3.29032258,19.9527342 C2.81720196,19.2844064 2.4301089,18.5837507 2.12903226,17.8507463 C1.78494472,17.1177419 1.52688268,16.3416307 1.35483871,15.5223881 C1.18279474,14.7031454 1.09677419,13.8623577 1.09677419,13 C1.09677419,11.3615188 1.40859912,9.8200753 2.03225806,8.37562396 C2.65591701,6.93116848 3.50537084,5.66998894 4.58064516,4.5920398 C5.65591948,3.47097154 6.91396955,2.59784756 8.35484077,1.97263475 C9.79570787,1.34742607 11.3333265,1.03482587 12.9677419,1.03482587 C14.6451695,1.03482587 16.2042921,1.34742607 17.6451634,1.97263475 C19.0860305,2.59784756 20.3440805,3.47097154 21.4193548,4.5920398 C22.4946292,5.66998894 23.3440826,6.93116848 23.967744,8.37562396 C24.5914013,9.8200753 24.9032258,11.3615188 24.9032258,13 C24.9032258,13.8623577 24.8172057,14.7031454 24.6451613,15.5223881 C24.4731169,16.3416307 24.2150565,17.1392993 23.8709677,17.9154229 C23.526879,18.6484273 23.1075303,19.3490831 22.6129012,20.017415 C22.1182761,20.6857428 21.5913992,21.2786028 21.0322581,21.7960199 L21.0322581,21.7960199 Z" id="Page-1"></path>
            </g>
        </g>
    </g>
</svg>