<?xml version="1.0" encoding="UTF-8" standalone="no"?>
<svg width="22px" height="28px" viewBox="0 0 22 28" version="1.1" xmlns="http://www.w3.org/2000/svg" xmlns:xlink="http://www.w3.org/1999/xlink">
    <!-- Generator: Sketch 39.1 (31720) - http://www.bohemiancoding.com/sketch -->
    <title>Page 1</title>
    <desc>Created with Sketch.</desc>
    <defs></defs>
    <g id="Page-1" stroke="none" stroke-width="1" fill="none" fill-rule="evenodd">
        <g id="find" transform="translate(-1157.000000, -122.000000)" fill="#000000">
            <path d="M1174.71331,148.550543 C1174.14632,148.550543 1173.40926,148.371002 1172.50209,148.011913 C1171.59492,147.652825 1170.59327,147.1142 1169.4971,146.396023 C1168.40094,145.677846 1167.25754,144.76124 1166.06688,143.646177 C1164.87622,142.53111 1163.73282,141.217624 1162.63666,139.705672 C1161.57829,138.269319 1160.65223,136.94638 1159.85846,135.736819 C1159.06468,134.527258 1158.42211,133.393311 1157.93073,132.334945 C1157.40155,131.31438 1157.00467,130.369424 1156.74007,129.500051 C1156.47548,128.630677 1156.34319,127.855815 1156.34319,127.175437 C1156.34319,126.646254 1156.42824,126.173777 1156.59833,125.75799 C1156.76842,125.342203 1156.96687,124.983121 1157.19366,124.68073 C1157.45825,124.416138 1157.72284,124.179898 1157.98743,123.972004 C1158.25202,123.764114 1158.47881,123.584571 1158.6678,123.433376 L1158.8379,123.31998 C1159.29148,122.979793 1159.81121,122.753001 1160.39709,122.639605 C1160.98297,122.52621 1161.4082,122.469512 1161.67279,122.469512 C1162.12638,122.469512 1162.46656,122.573458 1162.69335,122.781352 C1162.92015,122.989242 1163.09024,123.225482 1163.20363,123.490074 C1163.31703,123.679069 1163.66666,124.406682 1164.25255,125.672941 C1164.83843,126.939204 1165.16916,127.685718 1165.24476,127.91251 C1165.32035,128.063705 1165.3676,128.243248 1165.38651,128.451141 C1165.4054,128.659031 1165.39595,128.857472 1165.35815,129.046467 C1165.28256,129.273259 1165.18806,129.481149 1165.07467,129.670144 C1164.96127,129.85914 1164.81008,130.02923 1164.62108,130.180425 L1164.50769,130.237123 C1164.28089,130.388319 1164.02576,130.58676 1163.74226,130.832453 C1163.45877,131.078143 1163.29813,131.352179 1163.26033,131.654571 C1163.22253,131.805766 1163.23198,131.966407 1163.28868,132.136501 C1163.34538,132.306598 1163.43043,132.467239 1163.54382,132.618435 C1163.88401,133.072022 1164.35649,133.686242 1164.96127,134.461118 C1165.56605,135.235991 1166.18972,136.020305 1166.8323,136.814079 C1167.47488,137.607853 1168.0702,138.32602 1168.61828,138.968599 C1169.16637,139.611178 1169.5349,140.008059 1169.72389,140.159255 C1169.87509,140.31045 1170.02628,140.423846 1170.17748,140.499442 C1170.32867,140.575038 1170.47986,140.612838 1170.63106,140.612838 C1170.82005,140.650638 1170.99014,140.650638 1171.14134,140.612838 C1171.29254,140.575038 1171.42483,140.499442 1171.53823,140.386046 C1171.80282,140.159255 1171.99181,139.979712 1172.1052,139.847414 C1172.2186,139.715121 1172.2753,139.648974 1172.2753,139.648974 L1172.332,139.648974 C1172.3698,139.611174 1172.48319,139.535578 1172.67218,139.422182 C1172.86118,139.308786 1173.12577,139.252088 1173.46595,139.252088 C1173.69275,139.252088 1173.92899,139.299337 1174.17468,139.393831 C1174.42037,139.488329 1174.65661,139.611174 1174.8834,139.762369 C1175.52598,140.178156 1176.36699,140.735679 1177.40646,141.434956 C1178.44592,142.134236 1178.96565,142.483868 1178.96565,142.483868 L1179.02235,142.540566 C1179.21134,142.691762 1179.38143,142.975248 1179.53263,143.391035 C1179.68382,143.806822 1179.60823,144.298197 1179.30584,144.86518 C1179.15464,145.16757 1178.9184,145.536103 1178.59711,145.970789 C1178.27582,146.405475 1177.90729,146.811806 1177.4915,147.189794 C1177.07572,147.567782 1176.63159,147.889066 1176.15911,148.153658 C1175.68662,148.418249 1175.20469,148.550543 1174.71331,148.550543 L1174.71331,148.550543 Z M1161.67279,123.433376 C1161.446,123.433376 1161.09636,123.480625 1160.62388,123.575122 C1160.1514,123.669616 1159.74507,123.830261 1159.40488,124.057053 L1159.23478,124.227146 C1159.04579,124.340542 1158.8379,124.482285 1158.61111,124.652379 C1158.38431,124.822476 1158.17642,125.039815 1157.98743,125.304406 C1157.79843,125.531198 1157.63779,125.795786 1157.5055,126.098177 C1157.3732,126.400568 1157.30705,126.75965 1157.30705,127.175437 C1157.30705,127.818015 1157.43935,128.545632 1157.70394,129.358308 C1157.96853,130.17098 1158.34651,131.068686 1158.8379,132.051456 C1159.32928,133.034225 1159.95295,134.111474 1160.70893,135.283236 C1161.4649,136.454997 1162.35316,137.740136 1163.37373,139.138693 C1164.50769,140.612845 1165.65109,141.888535 1166.80395,142.965802 C1167.95681,144.043066 1169.04351,144.921874 1170.06408,145.602253 C1171.08465,146.282631 1172.00125,146.783457 1172.81393,147.104747 C1173.6266,147.426036 1174.25972,147.586679 1174.71331,147.586679 C1175.05349,147.586679 1175.42203,147.473284 1175.81892,147.246492 C1176.2158,147.019699 1176.58434,146.755111 1176.92453,146.452721 C1177.26471,146.112532 1177.5671,145.762898 1177.83169,145.40381 C1178.09628,145.044722 1178.30417,144.713988 1178.45537,144.411597 C1178.60656,144.071409 1178.64436,143.806822 1178.56876,143.617826 C1178.49317,143.428831 1178.43647,143.315439 1178.39867,143.277639 C1178.24747,143.164243 1177.6805,142.776811 1176.69773,142.11533 C1175.71496,141.453854 1174.9401,140.934127 1174.37312,140.55614 C1174.22192,140.442744 1174.07073,140.357699 1173.91954,140.300998 C1173.76834,140.2443 1173.61715,140.215953 1173.46595,140.215953 C1173.31476,140.215953 1173.20136,140.234851 1173.12577,140.272651 C1173.05017,140.31045 1172.99347,140.348247 1172.95567,140.386046 C1172.91787,140.423846 1172.83283,140.508891 1172.70053,140.641185 C1172.56824,140.773483 1172.38869,140.934124 1172.1619,141.123119 C1171.93511,141.312114 1171.68942,141.444408 1171.42483,141.520004 C1171.16024,141.5956 1170.89565,141.614502 1170.63106,141.576702 C1170.36647,141.576702 1170.09243,141.520004 1169.80894,141.406608 C1169.52545,141.293213 1169.27031,141.123119 1169.04352,140.896327 C1168.85452,140.707332 1168.47654,140.272654 1167.90956,139.592276 C1167.34258,138.911897 1166.71891,138.174832 1166.03853,137.381058 C1165.39595,136.549484 1164.76283,135.746272 1164.13915,134.971396 C1163.51547,134.196523 1163.05244,133.601201 1162.75005,133.185414 C1162.56106,132.920822 1162.42876,132.646786 1162.35317,132.363292 C1162.27757,132.079803 1162.25867,131.786868 1162.29647,131.484477 C1162.33427,131.257685 1162.41931,131.030894 1162.55161,130.804102 C1162.6839,130.577311 1162.82565,130.388319 1162.97684,130.237123 C1163.12804,130.048128 1163.28868,129.896936 1163.45878,129.78354 C1163.62887,129.670144 1163.78951,129.556748 1163.94071,129.443353 L1164.0541,129.386655 C1164.28089,129.197659 1164.39429,128.98032 1164.39429,128.734627 C1164.39429,128.488938 1164.37539,128.328293 1164.33759,128.252697 C1164.262,128.063702 1163.94071,127.345538 1163.37373,126.098177 C1162.80675,124.850816 1162.46656,124.113751 1162.35317,123.886959 C1162.27757,123.735763 1162.19252,123.622368 1162.09803,123.546772 C1162.00353,123.471176 1161.86179,123.433376 1161.67279,123.433376 L1161.67279,123.433376 Z" id="Page-1" transform="translate(1167.975708, 135.510027) rotate(-105.000000) translate(-1167.975708, -135.510027) "></path>
        </g>
    </g>
</svg>