<?xml version="1.0" encoding="UTF-8" standalone="no"?>
<svg width="34px" height="21px" viewBox="0 0 34 21" version="1.1" xmlns="http://www.w3.org/2000/svg" xmlns:xlink="http://www.w3.org/1999/xlink">
    <!-- Generator: Sketch 39.1 (31720) - http://www.bohemiancoding.com/sketch -->
    <title>Page 1</title>
    <desc>Created with Sketch.</desc>
    <defs></defs>
    <g id="Page-1" stroke="none" stroke-width="1" fill="none" fill-rule="evenodd">
        <g id="find" transform="translate(-454.000000, -22.000000)" fill="#000000">
            <g id="Group-15" transform="translate(454.000000, 22.000000)">
                <path d="M17.25,0 C15.7233003,0 14.2620513,0.239906062 12.8662109,0.719726562 C11.4703706,1.19954706 10.1181724,1.87564825 8.80957031,2.74804688 C7.45735119,3.5768285 6.10514881,4.61278669 4.75292969,5.85595912 C3.40070931,7.09912737 1.98308018,8.505851 0.5,10.0761719 C1.7649801,11.384774 2.99722693,12.649734 4.19677734,13.8710938 C5.3963265,15.0924535 6.65038225,16.1611282 7.95898438,17.0771484 C9.2675865,17.9931687 10.6743101,18.7346979 12.1791971,19.3017578 C13.6840883,19.8688179 15.3743392,20.1523438 17.25,20.1523438 C19.1256608,20.1523438 20.8704329,19.8142937 22.484375,19.1381836 C24.0983171,18.4620736 25.6031831,17.6224007 26.9990234,16.6191406 C28.3948638,15.6158784 29.670728,14.5363033 30.8266623,13.380369 C31.9825923,12.2244389 33.040359,11.1666722 34,10.2070312 C33.040359,9.02929269 31.9716839,7.84066244 30.7939453,6.64111537 C29.6162068,5.44156413 28.3294341,4.36198475 26.9335938,3.40234375 C25.5377534,2.39908156 24.0328874,1.58122094 22.4189453,0.948728375 C20.8050033,0.31624 19.0820396,0 17.25,0 L17.25,0 Z M17.25,18.9746094 C15.5924409,18.9746094 14.0875707,18.7456076 12.7353516,18.2875977 C11.3831324,17.8295877 10.0963598,17.1862022 8.875,16.3574219 C7.65364025,15.5286402 6.49772694,14.5799203 5.40722656,13.5112284 C4.31672619,12.4425407 3.20443281,11.2975316 2.0703125,10.0761719 C3.42253288,8.63671037 4.72020856,7.37175037 5.963381,6.28125 C7.20654925,5.19074963 8.4387965,4.25293387 9.66015625,3.46777344 C10.881516,2.72623419 12.1137633,2.15917969 13.3569315,1.76660156 C14.6001039,1.37402344 15.8977809,1.17773438 17.25,1.17773438 C18.8639421,1.17773438 20.3906166,1.43944894 21.8300781,1.96289062 C23.2695396,2.48633231 24.6217378,3.16242931 25.8867188,3.99121094 C27.1516997,4.86360956 28.3294215,5.83414225 29.4199219,6.90283412 C30.5104223,7.97152181 31.5354762,9.05110119 32.4951172,10.1416016 C31.5790974,11.1012426 30.5758519,12.104488 29.4853516,13.1513672 C28.3948512,14.1982464 27.2171294,15.1578748 25.9521484,16.0302734 C24.6871675,16.9026737 23.3349693,17.6114881 21.8955078,18.1567383 C20.4560463,18.7019885 18.9075591,18.9746094 17.25,18.9746094 L17.25,18.9746094 Z M17.25,3.40234375 C16.3339802,3.40234375 15.4724984,3.57682013 14.6655253,3.92578125 C13.8585563,4.27474237 13.1497424,4.7545545 12.5390625,5.36523438 C11.9283826,5.97591425 11.4485705,6.68472819 11.0996094,7.49169712 C10.7506482,8.29867025 10.5761719,9.16015206 10.5761719,10.0761719 C10.5761719,10.9921917 10.7506482,11.8536735 11.0996094,12.6606466 C11.4485705,13.4676156 11.9283826,14.1764295 12.5390625,14.7871094 C13.1497424,15.3977892 13.8585563,15.8776014 14.6655253,16.2265625 C15.4724984,16.5755224 16.3339802,16.75 17.25,16.75 C18.1660198,16.75 19.0275016,16.5755224 19.8344747,16.2265625 C20.6414437,15.8776014 21.3502576,15.3977892 21.9609375,14.7871094 C22.5716174,14.1764295 23.0514295,13.4676156 23.4003906,12.6606466 C23.7493518,11.8536735 23.9238281,10.9921917 23.9238281,10.0761719 C23.9238281,9.16015206 23.7493518,8.29867025 23.4003906,7.49169712 C23.0514295,6.68472819 22.5716174,5.97591425 21.9609375,5.36523438 C21.3502576,4.7545545 20.6414437,4.27474237 19.8344747,3.92578125 C19.0275016,3.57682013 18.1660198,3.40234375 17.25,3.40234375 L17.25,3.40234375 Z M17.25,15.6376953 C16.4648396,15.6376953 15.7342171,15.4959317 15.0581034,15.2124002 C14.3819938,14.928873 13.8040392,14.5253948 13.3242187,14.0019531 C12.8007771,13.5221326 12.3972989,12.9441781 12.1137716,12.2680685 C11.8302402,11.5919548 11.6884766,10.8613323 11.6884766,10.0761719 C11.6884766,9.29101144 11.8302402,8.560389 12.1137716,7.88427525 C12.3972989,7.20816569 12.8007771,6.63021113 13.3242187,6.15039062 C13.8040392,5.62694894 14.3819938,5.22347075 15.0581034,4.9399435 C15.7342171,4.65641206 16.4648396,4.51464844 17.25,4.51464844 C18.0351604,4.51464844 18.7657829,4.65641206 19.4418966,4.9399435 C20.1180062,5.22347075 20.6959608,5.62694894 21.1757812,6.15039062 C21.6992229,6.63021113 22.1027011,7.20816569 22.3862284,7.88427525 C22.6697598,8.560389 22.8115234,9.29101144 22.8115234,10.0761719 C22.8115234,10.8613323 22.6697598,11.5919548 22.3862284,12.2680685 C22.1027011,12.9441781 21.6992229,13.5221326 21.1757812,14.0019531 C20.6959608,14.5253948 20.1180062,14.928873 19.4418966,15.2124002 C18.7657829,15.4959317 18.0351604,15.6376953 17.25,15.6376953 L17.25,15.6376953 Z M17.25,6.15039062 C16.7265583,6.15039062 16.2249377,6.25943731 15.7451172,6.47753906 C15.2652967,6.69564081 14.8509142,6.97916387 14.5019531,7.328125 C14.152992,7.67708612 13.8694689,8.09146856 13.6513672,8.57128906 C13.4332654,9.05110956 13.3242188,9.55273019 13.3242188,10.0761719 C13.3242188,10.5996136 13.4332654,11.1012342 13.6513672,11.5810547 C13.8694689,12.0608752 14.152992,12.4752576 14.5019531,12.8242188 C14.8509142,13.1731799 15.2652967,13.4567029 15.7451172,13.6748047 C16.2249377,13.8929064 16.7265583,14.0019531 17.25,14.0019531 C17.7734417,14.0019531 18.2750623,13.8929064 18.7548828,13.6748047 C19.2347033,13.4567029 19.6490858,13.1731799 19.9980469,12.8242188 C20.347008,12.4752576 20.6305311,12.0608752 20.8486328,11.5810547 C21.0667346,11.1012342 21.1757812,10.5996136 21.1757812,10.0761719 C21.1757812,9.55273019 21.0667346,9.05110956 20.8486328,8.57128906 C20.6305311,8.09146856 20.347008,7.67708612 19.9980469,7.328125 C19.6490858,6.97916387 19.2347033,6.69564081 18.7548828,6.47753906 C18.2750623,6.25943731 17.7734417,6.15039062 17.25,6.15039062 L17.25,6.15039062 Z M17.25,12.8896484 C16.8574219,12.8896484 16.4975607,12.8133145 16.1704122,12.6606466 C15.8432596,12.5079746 15.5488281,12.3007812 15.2871094,12.0390625 C15.0253906,11.7773438 14.8181973,11.4829122 14.6655253,11.1557596 C14.5128574,10.8286112 14.4365234,10.46875 14.4365234,10.0761719 C14.4365234,9.68359375 14.5128574,9.32373256 14.6655253,8.99658413 C14.8181973,8.6694315 15.0253906,8.375 15.2871094,8.11328125 C15.5488281,7.8515625 15.8432596,7.64436919 16.1704122,7.49169713 C16.4975607,7.33902925 16.8574219,7.26269531 17.25,7.26269531 C17.6425781,7.26269531 18.0024393,7.33902925 18.3295878,7.49169713 C18.6567404,7.64436919 18.9511719,7.8515625 19.2128906,8.11328125 C19.4746094,8.375 19.6818027,8.6694315 19.8344747,8.99658413 C19.9871426,9.32373256 20.0634766,9.68359375 20.0634766,10.0761719 C20.0634766,10.46875 19.9871426,10.8286112 19.8344747,11.1557596 C19.6818027,11.4829122 19.4746094,11.7773438 19.2128906,12.0390625 C18.9511719,12.3007812 18.6567404,12.5079746 18.3295878,12.6606466 C18.0024393,12.8133145 17.6425781,12.8896484 17.25,12.8896484 L17.25,12.8896484 Z" id="Page-1"></path>
            </g>
        </g>
    </g>
</svg>